<?xml version="1.0" encoding="UTF-8"?>
<svg id="Layer_2" data-name="Layer 2" xmlns="http://www.w3.org/2000/svg" viewBox="0 0 305.43 339.81">
  <defs>
    <style>
      .cls-1 {
        fill: #8f75fd;
        stroke-width: 0px;
      }

      .cls-2 {
        fill: #fff;
        stroke: #fff;
        stroke-miterlimit: 10;
        stroke-width: 9px;
      }
    </style>
  </defs>
  <g id="Layer_1-2" data-name="Layer 1">
    <g>
      <path class="cls-1" d="M305.43,0c-1.48,13.81-2.86,26.91-4.32,40.01-6.12,55.17-12.22,110.34-18.45,165.49-2.28,20.23-7.26,39.96-16.86,58.73-14.53,28.39-38.12,48.87-71.13,60.34-41.61,14.46-84.57,19.26-128.16,11.66-36.43-6.34-58.02-27.52-64.34-59.56-3.77-19.08-1.92-38.11.2-57.24,2.8-25.14,3.64-60.06,6.32-85.85,9.27,12.78,28.7,20.63,50.39,18.83,18-1.5,33.37-9.32,42.1-20.02-3.36,29.62-6.71,59.24-9.93,88.88-.87,8.09-.37,16.36.49,24.44,1.32,12.66,10.18,20.99,24.61,23.17,15.74,2.37,31.15.54,45.73-5.82,17.91-7.84,25.22-21.99,27.8-37.92,3.47-21.32,5.71-42.79,8.19-64.22,5.75-49.82,12.26-99.6,17.08-149.5.35-3.64-.79-3.55,3.68-3.76,28.58-1.35,57.01-5.1,86.6-7.66Z"/>
      <ellipse class="cls-2" cx="57.66" cy="71.21" rx="42.84" ry="43.5" transform="translate(-5.71 5.03) rotate(-4.76)"/>
    </g>
  </g>
</svg>